<svg xmlns="http://www.w3.org/2000/svg" width="50" height="50" viewBox="0 0 50 50">
  <path id="Icon_ionic-ios-arrow-dropleft-circle" data-name="Icon ionic-ios-arrow-dropleft-circle" d="M28.375,3.375a25,25,0,1,0,25,25A25,25,0,0,0,28.375,3.375Zm5.216,34.748a2.329,2.329,0,0,1,0,3.281,2.291,2.291,0,0,1-1.635.673,2.332,2.332,0,0,1-1.647-.685l-11.3-11.334a2.317,2.317,0,0,1,.072-3.2l11.466-11.5a2.32,2.32,0,1,1,3.281,3.281l-9.844,9.736Z" transform="translate(-3.375 -3.375)" fill="#707070" opacity="0.3"/>
</svg>
