<svg xmlns="http://www.w3.org/2000/svg" xmlns:xlink="http://www.w3.org/1999/xlink" width="878.721" height="1215.001" viewBox="0 0 878.721 1215.001">
  <defs>
    <filter id="Intersection_2" x="0" y="689.661" width="878.721" height="525.339" filterUnits="userSpaceOnUse">
      <feOffset dy="-8" input="SourceAlpha"/>
      <feGaussianBlur stdDeviation="25" result="blur"/>
      <feFlood flood-color="#f2fffb"/>
      <feComposite operator="in" in2="blur"/>
      <feComposite in="SourceGraphic"/>
    </filter>
    <filter id="Intersection_3" x="167.319" y="0" width="706.758" height="456.892" filterUnits="userSpaceOnUse">
      <feOffset dx="-48" dy="7" input="SourceAlpha"/>
      <feGaussianBlur stdDeviation="25" result="blur-2"/>
      <feFlood flood-color="#fcf2ff"/>
      <feComposite operator="in" in2="blur-2"/>
      <feComposite in="SourceGraphic"/>
    </filter>
    <filter id="Path_9" x="442.543" y="541.826" width="416.75" height="416.75" filterUnits="userSpaceOnUse">
      <feOffset dy="3" input="SourceAlpha"/>
      <feGaussianBlur stdDeviation="17.5" result="blur-3"/>
      <feFlood flood-color="#f29ef2"/>
      <feComposite operator="in" in2="blur-3"/>
      <feComposite in="SourceGraphic"/>
    </filter>
    <filter id="Path_10" x="536.89" y="635.01" width="229.405" height="229.405" filterUnits="userSpaceOnUse">
      <feOffset dy="3" input="SourceAlpha"/>
      <feGaussianBlur stdDeviation="17.5" result="blur-4"/>
      <feFlood flood-color="#f29ef2"/>
      <feComposite operator="in" in2="blur-4"/>
      <feComposite in="SourceGraphic"/>
    </filter>
    <filter id="Path_11" x="657.549" y="625.11" width="139.324" height="139.324" filterUnits="userSpaceOnUse">
      <feOffset dy="3" input="SourceAlpha"/>
      <feGaussianBlur stdDeviation="17.5" result="blur-5"/>
      <feFlood flood-color="#f29ef2"/>
      <feComposite operator="in" in2="blur-5"/>
      <feComposite in="SourceGraphic"/>
    </filter>
    <filter id="Icon_awesome-facebook-f" x="266.54" y="377.455" width="268.455" height="379.628" filterUnits="userSpaceOnUse">
      <feOffset dy="3" input="SourceAlpha"/>
      <feGaussianBlur stdDeviation="17.5" result="blur-6"/>
      <feFlood flood-color="#53a3f3"/>
      <feComposite operator="in" in2="blur-6"/>
      <feComposite in="SourceGraphic"/>
    </filter>
    <filter id="Icon_simple-whatsapp" x="517.677" y="304.426" width="226.089" height="226.089" filterUnits="userSpaceOnUse">
      <feOffset dy="3" input="SourceAlpha"/>
      <feGaussianBlur stdDeviation="10" result="blur-7"/>
      <feFlood flood-color="#81f294"/>
      <feComposite operator="in" in2="blur-7"/>
      <feComposite in="SourceGraphic"/>
    </filter>
  </defs>
  <g id="Group_9" data-name="Group 9" transform="translate(75 68)">
    <g transform="matrix(1, 0, 0, 1, -75, -68)" filter="url(#Intersection_2)">
      <path id="Intersection_2-2" data-name="Intersection 2" d="M175.472-292V-561.689A321.731,321.731,0,0,1,312.107-637.3c172.372-46.187,544.062-59.515,590.249,112.857,21.569,80.5-152.285,131.149-232.958,227.08-1.492,1.774-2.968,3.568-4.416,5.364Z" transform="translate(-100.47 1440)" fill="#f2fffb"/>
    </g>
    <g transform="matrix(1, 0, 0, 1, -75, -68)" filter="url(#Intersection_3)">
      <path id="Intersection_3-2" data-name="Intersection 3" d="M415.521-792.21c-69.355-52.263-171.994-165.479-200.2-262.057H755.527A222.493,222.493,0,0,1,727.246-836.02a222.25,222.25,0,0,1-177.937,88.644A221.6,221.6,0,0,1,415.521-792.21Z" transform="translate(75 1122.27)" fill="#fcf2ff"/>
    </g>
    <g id="Icon_feather-instagram" data-name="Icon feather-instagram" transform="translate(472.643 537.056) rotate(9)">
      <g transform="matrix(0.99, -0.16, 0.16, 0.99, -635.55, -511.94)" filter="url(#Path_9)">
        <path id="Path_9-2" data-name="Path 9" d="M63.62,3H184.86a60.62,60.62,0,0,1,60.62,60.62V184.86a60.62,60.62,0,0,1-60.62,60.62H63.62A60.62,60.62,0,0,1,3,184.86V63.62A60.62,60.62,0,0,1,63.62,3Z" transform="translate(547.64 605.06) rotate(9)" fill="none" stroke="#f29ef2" stroke-linecap="round" stroke-linejoin="round" stroke-width="30"/>
      </g>
      <g transform="matrix(0.99, -0.16, 0.16, 0.99, -635.55, -511.94)" filter="url(#Path_10)">
        <path id="Path_10-2" data-name="Path 10" d="M90.3,45.5A39.33,39.33,0,1,1,57.164,12.362,39.33,39.33,0,0,1,90.3,45.5Z" transform="translate(608.85 688.04) rotate(9)" fill="none" stroke="#f29ef2" stroke-linecap="round" stroke-linejoin="round" stroke-width="30"/>
      </g>
      <g transform="matrix(0.99, -0.16, 0.16, 0.99, -635.55, -511.94)" filter="url(#Path_11)">
        <path id="Path_11-2" data-name="Path 11" d="M26.25,10.342h0" transform="translate(702.9 677.45) rotate(9)" fill="none" stroke="#f29ef2" stroke-linecap="round" stroke-linejoin="round" stroke-width="30"/>
      </g>
    </g>
    <g transform="matrix(1, 0, 0, 1, -75, -68)" filter="url(#Icon_awesome-facebook-f)">
      <path id="Icon_awesome-facebook-f-2" data-name="Icon awesome-facebook-f" d="M133.407,148.128l7.314-47.658H94.992V69.543C94.992,56.5,101.38,43.8,121.86,43.8H142.65V3.22A253.521,253.521,0,0,0,105.746,0C68.087,0,43.471,22.826,43.471,64.147V100.47H1.609v47.658H43.471v115.21H94.992V148.128Z" transform="translate(317.44 439.39) rotate(-5)" fill="#53a3f3"/>
    </g>
    <g transform="matrix(1, 0, 0, 1, -75, -68)" filter="url(#Icon_simple-whatsapp)">
      <path id="Icon_simple-whatsapp-2" data-name="Icon simple-whatsapp" d="M117.078,96.229c-2.014-1-11.823-5.8-13.649-6.463s-3.165-1-4.5,1c-1.318,1.974-5.159,6.45-6.316,7.775-1.171,1.3-2.335,1.405-4.322.5A54.3,54.3,0,0,1,72.209,89.11,60.7,60.7,0,0,1,61.1,75.26c-1.164-2.007-.127-3.111.87-4.115.91-.9,2.014-2.308,3.018-3.5a16.962,16.962,0,0,0,1.987-3.319,3.678,3.678,0,0,0-.167-3.506c-.5-1-4.5-10.839-6.169-14.76-1.606-3.908-3.258-3.412-4.5-3.412-1.151-.1-2.482-.1-3.821-.1a7.543,7.543,0,0,0-5.333,2.4C45.164,46.957,40,51.774,40,61.51s7.159,19.17,8.156,20.575c1,1.3,14.084,21.378,34.124,30.009,4.777,2.007,8.5,3.212,11.4,4.209a27.682,27.682,0,0,0,12.579.81c3.841-.609,11.823-4.824,13.489-9.541,1.706-4.717,1.706-8.631,1.2-9.535s-1.807-1.405-3.814-2.308M80.7,145.528h-.107a66.933,66.933,0,0,1-33.823-9.233l-2.409-1.432L19.27,141.386,25.994,117l-1.6-2.509A66.029,66.029,0,0,1,14.252,79.294c0-36.432,29.808-66.14,66.521-66.14a66.466,66.466,0,0,1,66.441,66.24c-.027,36.425-29.842,66.14-66.474,66.14M137.3,23.077A81.241,81.241,0,0,0,80.592,0C36.553,0,.7,35.689.676,79.575a79.193,79.193,0,0,0,10.672,39.778L0,160.582l42.387-11.053a80.707,80.707,0,0,0,38.205,9.682h.04c44.06,0,79.93-35.7,79.95-79.6A78.914,78.914,0,0,0,137.2,23.338" transform="translate(547.68 337.03) rotate(-2)" fill="#81f294"/>
    </g>
  </g>
</svg>
